<svg xmlns="http://www.w3.org/2000/svg" version="1.1" xmlns:xlink="http://www.w3.org/1999/xlink" width="512" height="512" x="0" y="0" viewBox="0 0 512 512" style="enable-background:new 0 0 512 512" xml:space="preserve"><g><path d="M494.023 453.463h-.911v-11.795c0-9.912-8.064-17.976-17.977-17.976h-21.412v-16.264c0-7.726-6.074-14.043-13.695-14.47V240.077c7.621-.427 13.695-6.744 13.695-14.47v-16.264h20.774c7.915 0 14.355-6.439 14.355-14.355V179.66h10.919c6.425 0 11.653-5.228 11.653-11.652V154.76a11.64 11.64 0 0 0-6.11-10.25L333.315 51.496a7.505 7.505 0 0 0-10.18 3.034 7.51 7.51 0 0 0 3.034 10.179l170.232 92.059v7.869H15.599v-7.804L259.692 28.759l35.524 19.212a7.508 7.508 0 0 0 10.18-3.034 7.51 7.51 0 0 0-3.034-10.179l-35.525-19.213a14.937 14.937 0 0 0-14.065-.088L6.817 144.476a11.62 11.62 0 0 0-6.241 10.319v13.212c0 6.425 5.228 11.652 11.653 11.652h10.919v15.329c0 7.915 6.439 14.355 14.355 14.355h20.774v16.264c0 7.726 6.074 14.043 13.695 14.47v99.525a7.51 7.51 0 1 0 15.022 0v-99.483h24.036v152.798H86.995v-18.012c0-4.149-3.363-7.511-7.511-7.511s-7.511 3.362-7.511 7.511v18.053c-7.621.427-13.695 6.744-13.695 14.47v16.264H36.865c-9.912 0-17.977 8.064-17.977 17.976v11.795h-.911C8.064 453.463 0 461.527 0 471.44v15.711c0 6.124 4.983 11.108 11.107 11.108h489.786c6.124 0 11.107-4.983 11.107-11.108V471.44c0-9.913-8.064-17.977-17.977-17.977zM38.171 194.321V179.66h435.658v14.661H38.171zM438.7 407.939v15.752h-51.426v-15.752H438.7zm-37.731-15.023V240.118h24.036v152.798h-24.036zm-13.695-167.82v-15.752H438.7v15.752h-51.426zM335.37 392.958V240.077c7.621-.427 13.695-6.744 13.695-14.47v-16.264h23.186v16.264c0 7.726 6.074 14.043 13.695 14.47v152.881c-7.621.427-13.695 6.744-13.695 14.47v16.264h-23.186v-16.264c0-7.726-6.074-14.043-13.695-14.47zm-1.328 14.981v15.752h-51.426v-15.752h51.426zm-37.731-15.023V240.118h24.036v152.798h-24.036zm-13.695-167.82v-15.752h51.426v15.752h-51.426zm-51.904 167.862V240.077c7.621-.427 13.695-6.744 13.695-14.47v-16.264h23.186v16.264c0 7.726 6.074 14.043 13.695 14.47v152.881c-7.621.427-13.695 6.744-13.695 14.47v16.264h-23.186v-16.264c0-7.726-6.074-14.043-13.695-14.47zm-7.512 14.981h6.184v15.752h-51.426v-15.752H223.2zm-31.547-15.023V240.118h24.036v152.798h-24.036zm-13.695-167.82v-15.752h51.426v15.752h-51.426zm-51.904 167.862V240.077c7.621-.427 13.695-6.744 13.695-14.47v-16.264h23.186v16.264c0 7.726 6.074 14.043 13.695 14.47v152.881c-7.621.427-13.695 6.744-13.695 14.47v16.264h-23.186v-16.264c0-7.726-6.074-14.043-13.695-14.47zM73.3 225.096v-15.752h51.426v15.752H73.3zm0 182.843H124.727v15.752H73.3v-15.752zm-39.389 33.729a2.958 2.958 0 0 1 2.954-2.954h438.27a2.957 2.957 0 0 1 2.954 2.954v11.795H33.911v-11.795zm463.066 41.568H15.023V471.44a2.958 2.958 0 0 1 2.954-2.954h476.046a2.957 2.957 0 0 1 2.954 2.954v11.796z" fill="#f1f1f1" opacity="1" data-original="#000000"></path></g></svg>