<svg xmlns="http://www.w3.org/2000/svg" version="1.1" xmlns:xlink="http://www.w3.org/1999/xlink" width="512" height="512" x="0" y="0" viewBox="0 0 511 511.999" style="enable-background:new 0 0 512 512" xml:space="preserve" class=""><g><path d="M112.45 64.469c0-2.88 2.984-4.371 6.077-4.371h20.575c11.09 0 21.43 3.625 21.43 18.761 0 8.743-3.41 14.5-9.063 16.954 6.504 2.558 10.98 6.714 10.98 17.378v2.239c0 16.629-9.273 22.601-21.324 22.601h-22.602c-3.73 0-6.074-2.023-6.074-4.265zm13.753 25.906h11.938c5.757 0 8.53-3.73 8.53-9.168 0-5.547-3.198-8.957-8.636-8.957H126.2v18.125zm12.047 35.5c6.5 0 10.34-3.516 10.34-11.617v-1.707c0-8.317-3.84-11.301-10.34-11.301h-12.047v24.625zM172.363 64.36c0-2.985 3.41-4.262 6.93-4.262 3.41 0 6.93 1.277 6.93 4.261v69.301c0 2.88-3.52 4.371-6.93 4.371-3.52 0-6.93-1.492-6.93-4.37zM205.09 138.031c-3.09 0-6.074-1.492-6.074-4.37V64.358c0-2.984 3.41-4.261 6.93-4.261 3.41 0 6.929 1.277 6.929 4.261v61.52h26.012c2.773 0 4.16 2.984 4.16 6.074 0 2.984-1.387 6.078-4.16 6.078zM256.691 138.031c-3.093 0-6.078-1.492-6.078-4.37V64.358c0-2.984 3.414-4.261 6.93-4.261 3.414 0 6.93 1.277 6.93 4.261v61.52h26.015c2.77 0 4.157 2.984 4.157 6.074 0 2.984-1.387 6.078-4.157 6.078zM363.832 137.926c-12.898-.32-22.602-7.25-22.602-13.223 0-2.984 2.668-7.465 5.97-7.465 4.05 0 7.25 6.934 16.632 7.996V104.02c-9.703-3.625-20.684-7.782-20.684-21.43 0-13.54 10.024-19.403 20.684-20.79v-2.984c0-1.386 1.598-2.664 3.625-2.664 1.813 0 3.625 1.278 3.625 2.664v2.774c6.93.21 18.23 2.234 18.23 8.422 0 2.449-1.703 7.355-5.648 7.355-2.984 0-5.437-3.414-12.582-3.945v18.766c9.488 3.515 20.152 8.316 20.152 22.812 0 13.113-8.21 20.684-20.152 22.602v3.308c0 1.387-1.812 2.664-3.625 2.664-2.027 0-3.625-1.277-3.625-2.664zm.852-48.086V73.742c-5.329.856-8.528 3.414-8.528 7.465 0 4.691 3.625 6.715 8.528 8.633zm5.543 16.738v18.555c4.691-.961 7.996-3.735 7.996-8.742.004-5.227-3.41-7.786-7.996-9.813zM304.434 219.117H111.207a7.5 7.5 0 0 0-7.5 7.5 7.5 7.5 0 0 0 7.5 7.5h193.227c4.144 0 7.5-3.355 7.5-7.5 0-4.144-3.356-7.5-7.5-7.5zM304.434 281.512H111.207a7.5 7.5 0 1 0 0 15h193.227a7.5 7.5 0 0 0 7.5-7.5c0-4.145-3.356-7.5-7.5-7.5zM304.434 343.902H111.207a7.5 7.5 0 1 0 0 15h193.227c4.144 0 7.5-3.355 7.5-7.5a7.5 7.5 0 0 0-7.5-7.5zM304.434 406.297H111.207c-4.14 0-7.5 3.355-7.5 7.5s3.36 7.5 7.5 7.5h193.227c4.144 0 7.5-3.356 7.5-7.5s-3.356-7.5-7.5-7.5zM388.543 219.117h-48.617a7.5 7.5 0 0 0-7.5 7.5 7.5 7.5 0 0 0 7.5 7.5h48.617a7.5 7.5 0 0 0 7.5-7.5 7.5 7.5 0 0 0-7.5-7.5zM388.543 281.512h-48.617a7.5 7.5 0 1 0 0 15h48.617a7.5 7.5 0 1 0 0-15zM388.543 343.902h-48.617a7.5 7.5 0 1 0 0 15h48.617a7.5 7.5 0 1 0 0-15zm0 0" fill="#f1f1f1" opacity="1" data-original="#000000"></path><path d="M408.39 0H39.849C18.152 0 .5 17.652.5 39.348v325.66c0 17.73 14.422 32.152 32.156 32.152h3.805a7.5 7.5 0 1 0 0-15h-3.805c-9.46 0-17.156-7.695-17.156-17.152V39.348C15.5 25.922 26.422 15 39.848 15c13.425 0 24.347 10.922 24.347 24.348v450.574a14.996 14.996 0 0 0 11.547 14.633l29.442 7.035c2.289.547 4.707.543 6.992 0l33.504-8 33.476 8c2.285.547 4.703.543 6.992 0l33.497-8 33.48 8c2.29.547 4.707.543 6.996 0l33.5-8 33.484 8c2.29.547 4.704.543 6.993 0l33.504-8 33.48 7.996a15.06 15.06 0 0 0 7 .004l29.45-7.035a14.996 14.996 0 0 0 11.546-14.633V40.688C449.078 18.254 430.824 0 408.391 0zm25.653 489.965L404.574 497l-33.488-8a15.105 15.105 0 0 0-6.992 0l-33.504 8-33.485-8a15.105 15.105 0 0 0-6.992 0l-33.5 8-33.484-8a15.105 15.105 0 0 0-6.992 0l-33.496 8-33.477-8c-1.144-.273-2.32-.41-3.496-.41s-2.352.137-3.496.41l-33.5 8-29.477-7.078V39.348a37.606 37.606 0 0 0-.09-2.493c-.023-.421-.054-.84-.093-1.261-.024-.23-.051-.461-.078-.696a37.62 37.62 0 0 0-.145-1.16c-.035-.234-.07-.468-.11-.699-.062-.39-.132-.777-.206-1.168-.043-.215-.082-.43-.125-.644-.094-.446-.2-.883-.305-1.32-.04-.153-.07-.305-.11-.454a41.905 41.905 0 0 0-.492-1.73c-.046-.145-.097-.286-.144-.43a49.016 49.016 0 0 0-.43-1.277c-.074-.204-.156-.407-.234-.61a35.45 35.45 0 0 0-.418-1.066c-.09-.215-.184-.43-.274-.64a40.09 40.09 0 0 0-.46-1.016c-.098-.207-.196-.414-.297-.622a38.079 38.079 0 0 0-.54-1.05c-.093-.176-.183-.356-.277-.528a36.953 36.953 0 0 0-.828-1.433l-.055-.102c-.304-.5-.625-.992-.949-1.476L72.207 17c-.23-.328-.46-.656-.695-.977-.133-.175-.266-.351-.403-.527-.125-.164-.246-.332-.375-.496h337.657c14.164 0 25.687 11.523 25.687 25.691zm0 0" fill="#f1f1f1" opacity="1" data-original="#000000"></path></g></svg>