<svg xmlns="http://www.w3.org/2000/svg" version="1.1" xmlns:xlink="http://www.w3.org/1999/xlink" width="512" height="512" x="0" y="0" viewBox="0 0 55 55" style="enable-background:new 0 0 512 512" xml:space="preserve" class=""><g><path d="M4.127 23.055a3 3 0 0 0 1.333.408c.497.02.83-.075 1.192-.121.41-.078.818-.16 1.228-.252-1.139.64-2.104 1.607-2.688 2.793a6.27 6.27 0 0 0-.629 1.954c-.07.335-.067.692-.089 1.02l-.014.917-.089 7.337c0 .29-.017.74.028 1.033.047.398.166.79.344 1.15a3.723 3.723 0 0 0 3.208 2.093 99.172 99.172 0 0 0-.31 4.43l-.013.334c0 .157.005.324.031.485.155 1.033.875 1.881 1.788 2.21.312.116.662.174.979.177l2.004.023c.446.01.891-.003 1.337-.007l.668-.01c1.39-.012 2.586-.987 2.793-2.398.026-.163.03-.331.03-.49-.016-.336-.048-1.912-.282-4.71l8.132.023 13.303-.06c-.257 2.996-.293 4.573-.301 4.726 0 .158.005.326.031.488.148.987.823 1.866 1.799 2.212.312.116.663.174.98.176l2.005.024 1.336-.016.668-.01c1.07-.01 2.01-.588 2.469-1.457a2.837 2.837 0 0 0 .342-1.426c-.013-.256-.043-1.788-.305-4.818.641-.04 1.356-.255 1.901-.645a3.684 3.684 0 0 0 1.397-1.88c.12-.379.177-.776.176-1.168l-.11-6.42-.03-1.833c-.001-.58-.033-1.307-.183-1.96-.417-1.881-1.73-3.456-3.392-4.319.387.085.773.159 1.16.232.362.046.696.14 1.192.12a3 3 0 0 0 1.333-.412c.843-.464 1.42-1.386 1.554-2.375.132-.99-.234-2.05-.954-2.767a3.46 3.46 0 0 0-1.28-.795 3.478 3.478 0 0 0-1.405-.167c-.888.008-1.964.432-2.516 1.207-.29.375-.51.803-.598 1.257-.1.436-.054.952.012 1.273.055.288.112.575.17.863-1.575-4.132-3.164-8.259-4.829-12.358-.21-.53-.441-1.19-.897-1.671a3.335 3.335 0 0 0-1.633-1.017 3.264 3.264 0 0 0-.953-.104l-2.697.045-7.193.151 7.193.147 1.799.029c.606.019 1.208-.035 1.72.166.523.182.98.525 1.308.959.347.43.481.947.667 1.54 1.32 4.232 2.715 8.437 4.124 12.637-5.607-.1-11.214-.167-16.822-.174-5.522-.033-11.045.003-16.567.042 1.415-4.122 2.825-8.245 4.192-12.383.204-.62.322-1.036.634-1.407a2.43 2.43 0 0 1 1.135-.804c.23-.076.444-.11.71-.121.102-.005 2.873-.137 2.702-.13 2.402-.169 4.804-.27 7.205-.5-2.402-.223-4.804-.317-7.207-.479l-1.801-.08-.901-.04a3.664 3.664 0 0 0-2.898 1.27c-.5.538-.755 1.297-.943 1.805a1194.12 1194.12 0 0 0-4.935 13.217c.128-.522.236-1.044.333-1.567.066-.32.111-.837.01-1.273-.088-.454-.309-.881-.6-1.256-.553-.773-1.63-1.195-2.519-1.201a3.477 3.477 0 0 0-1.404.17c-.479.165-.917.443-1.279.797-.718.718-1.082 1.78-.948 2.769.135.988.715 1.91 1.559 2.372zm11.311 23.088c-.008.064-.013.118-.029.174-.082.32-.34.612-.647.706a.997.997 0 0 1-.33.047l-.667-.008c-.446-.003-.891-.016-1.337-.005l-2.004.028c-.129 0-.224-.013-.332-.047a1.01 1.01 0 0 1-.539-.393 1.006 1.006 0 0 1-.143-.317c-.016-.058-.02-.114-.03-.179-.006-.1-.062-1.864-.33-4.747l1.386.012 5.275.014c-.23 2.816-.252 4.265-.273 4.715zm30.507-.03c-.008.064-.013.119-.029.176a.989.989 0 0 1-.14.311c-.129.186-.314.33-.518.397a1.002 1.002 0 0 1-.33.047l-.669-.008-1.336-.013-2.005.027a1.017 1.017 0 0 1-1-.755c-.017-.057-.022-.112-.03-.177-.01-.154-.049-1.731-.311-4.73l6.662-.07c-.253 2.998-.278 4.483-.294 4.794zm3.359-18.455c.167 1.016.04 2.316.052 3.524l-.082 5.502-.014.917c-.009.22-.048.432-.119.635a1.99 1.99 0 0 1-2.025 1.32l-7.337-.063-14.673-.038-14.672.07-2.293.024c-.146-.004-.22.002-.331-.016a1.911 1.911 0 0 1-1.47-1.031 1.78 1.78 0 0 1-.191-.595c-.031-.187-.024-.426-.03-.798l-.104-7.336L6 28.856c.013-.281-.004-.54.045-.807.058-.531.21-1.052.44-1.537.443-.981 1.221-1.801 2.153-2.36.288-.163.594-.291.907-.401.066.015.128.04.198.04 5.97.031 11.983.061 17.908.015 5.964-.02 11.928-.103 17.892-.226h.033c.035-.001.07-.015.106-.021 1.842.601 3.297 2.226 3.622 4.099zm-2.635-7.018c.072-.72.353-1.128.747-1.47.425-.307.823-.443 1.38-.377.208.013.316.02.418.038.109.021.215.049.314.095 1.136.456 1.364 1.971.461 2.8-.385.365-.83.497-1.636.592a23.26 23.26 0 0 0-1.902.425c-.055-.02-.11-.04-.164-.058-.008-.045-.005-.089-.022-.132l-.01-.027a23.53 23.53 0 0 0 .414-1.886zm-41.2-1.67c.1-.046.206-.074.314-.095.102-.02.21-.026.418-.04.557-.067.956.069 1.38.375.396.34.677.748.75 1.468.127.669.257 1.337.45 2.006-.078.028-.153.065-.23.096-.633-.175-1.266-.3-1.9-.42-.806-.093-1.251-.225-1.637-.59-.904-.825-.681-2.342.456-2.8z" fill="#000000" opacity="1" data-original="#000000" class=""></path><path d="M14.885 27.202a3.466 3.466 0 0 0-2.496-1.324c-1.005-.098-2.053.303-2.82 1.003a3.872 3.872 0 0 0-1.22 2.818 3.866 3.866 0 0 0 1.223 2.817c.766.7 1.814 1.098 2.818 1a3.47 3.47 0 0 0 2.494-1.323c.56-.743.772-1.695.545-2.494-.419 1.618-1.862 2.43-3.04 2.262-1.204-.136-2.06-1.193-2.04-2.261-.016-1.07.837-2.125 2.039-2.26 1.178-.17 2.617.642 3.041 2.259.227-.8.016-1.752-.544-2.497zM45.238 27.172a3.466 3.466 0 0 0-2.496-1.324c-1.005-.099-2.053.303-2.82 1.002a3.872 3.872 0 0 0-1.22 2.818 3.866 3.866 0 0 0 1.223 2.818c.766.7 1.813 1.097 2.818 1a3.47 3.47 0 0 0 2.493-1.323c.561-.744.773-1.695.546-2.495-.42 1.618-1.862 2.43-3.04 2.263-1.205-.136-2.06-1.193-2.04-2.261-.016-1.071.836-2.125 2.039-2.261 1.177-.169 2.616.642 3.04 2.26.228-.8.017-1.752-.543-2.497zM27.567 31.025c-.994.002-1.988.071-2.982.219-.993.16-1.987.369-2.98.786.994.416 1.988.623 2.982.781.994.146 1.988.213 2.982.213.994 0 1.988-.069 2.981-.216.994-.16 1.988-.37 2.981-.79-.994-.417-1.988-.625-2.982-.783a20.196 20.196 0 0 0-2.982-.21zM24.79 19.19c3.222-1.316 7.165-5.303 8.464-8.464-3.187 1.31-7.159 5.268-8.464 8.464zM27.443 12.354c.273-.499.513-1.032.605-1.713-.681.092-1.214.332-1.714.605a6.357 6.357 0 0 0-2.32 2.317c-.275.498-.513 1.033-.603 1.715.682-.09 1.216-.329 1.715-.603a6.358 6.358 0 0 0 2.317-2.32z" fill="#000000" opacity="1" data-original="#000000" class=""></path></g></svg>