<svg id="Capa_1" enable-background="new 0 0 512 512" height="512" viewBox="0 0 512 512" width="512" xmlns="http://www.w3.org/2000/svg"><g><path d="m474.559 87.59s-111.692.063-112.208.176c-19.29-11.531-41.826-18.169-65.887-18.169-24.179 0-46.819 6.702-66.172 18.337-.71-.223-192.852-.344-192.852-.344-20.644 0-37.44 16.795-37.44 37.44v279.933c0 20.645 16.796 37.441 37.441 37.441h437.119c20.645 0 37.441-16.796 37.441-37.441v-127.696c0-4.136-3.352-7.488-7.488-7.488s-7.488 3.352-7.488 7.488v127.696c0 12.387-10.078 22.464-22.464 22.464h-437.12c-12.387 0-22.464-10.078-22.464-22.464v-225.65h154.097c-.93 6.231-1.417 12.604-1.417 19.09 0 2.553.083 5.086.23 7.602h-87.74c-12.18 0-22.09 9.909-22.09 22.09v32.573c0 5.594 2.094 10.706 5.534 14.602-3.44 3.896-5.534 9.008-5.534 14.602v32.573c0 5.594 2.094 10.706 5.534 14.602-3.44 3.896-5.534 9.008-5.534 14.602v32.573c0 12.181 9.91 22.09 22.09 22.09h176.47c12.181 0 22.09-9.909 22.09-22.09v-32.573c0-5.594-2.094-10.706-5.534-14.602 2.709-3.067 4.581-6.888 5.255-11.106 5.896.83 11.915 1.269 18.036 1.269 71.024 0 128.806-57.782 128.806-128.807 0-6.486-.487-12.859-1.417-19.09h73.17v65.069c0 4.136 3.352 7.488 7.488 7.488s7.488-3.352 7.488-7.488v-119.352c.001-20.645-16.795-37.44-37.44-37.44zm-459.583 76.747v-39.307c0-12.387 10.077-22.464 22.464-22.464h173.061c-18.133 16.281-31.633 37.618-38.264 61.771zm58.058 63.758c0-3.922 3.191-7.114 7.114-7.114h89.493c3.013 16.973 9.36 32.808 18.34 46.801h-107.834c-3.922 0-7.114-3.191-7.114-7.114v-32.573zm183.583 101.464h-121.238c-4.136 0-7.488 3.352-7.488 7.488s3.353 7.488 7.488 7.488h121.238c3.922 0 7.114 3.191 7.114 7.114v32.573c0 3.922-3.191 7.114-7.114 7.114h-176.47c-3.922 0-7.114-3.191-7.114-7.114v-32.573c0-3.922 3.191-7.114 7.114-7.114h21.91c4.136 0 7.488-3.352 7.488-7.488s-3.353-7.488-7.488-7.488h-21.91c-3.922 0-7.114-3.191-7.114-7.114v-32.573c0-3.922 3.191-7.114 7.114-7.114h119.053c16.739 19.275 39.1 33.54 64.504 40.225-.277 3.671-3.346 6.576-7.087 6.576zm39.847-17.325c-62.767 0-113.831-51.064-113.831-113.831s51.064-113.83 113.831-113.83 113.83 51.063 113.83 113.83-51.063 113.831-113.83 113.831zm124.225-147.897c-1.655-6.028-3.738-11.881-6.215-17.523 4.467-1.842 7.613-6.234 7.613-11.366 0-6.789-5.504-12.293-12.293-12.293-2.694 0-5.179.874-7.203 2.344-5.803-8.421-12.578-16.12-20.167-22.934h92.134c12.387 0 22.464 10.078 22.464 22.464v39.307h-76.333z"/><circle cx="451.354" cy="135.448" r="12.293"/><path d="m296.464 109.408c-12.349 0-24.306 2.483-35.54 7.382-3.791 1.653-5.524 6.066-3.872 9.856 1.654 3.791 6.065 5.527 9.856 3.872 9.336-4.07 19.28-6.134 29.556-6.134 40.814 0 74.018 33.204 74.018 74.018s-33.204 74.019-74.018 74.019c-10.236 0-19.992-2.09-28.867-5.864 1.044-.46 2.024-1.112 2.88-1.968l62.915-62.915c2.737-2.737 3.511-6.801 1.972-10.353s-5.037-5.733-8.904-5.644l-14.921.483 14.072-25.586c2.271-4.131 1.183-9.183-2.586-12.012-3.768-2.831-8.923-2.463-12.257.868l-56.805 56.805c-2.69 2.691-3.488 6.7-2.032 10.215s4.856 5.787 8.661 5.787h11.918l-16.909 31.267c-1.011 1.87-1.33 3.924-1.034 5.874-19.385-13.361-32.123-35.705-32.123-60.976 0-19.26 7.359-37.502 20.721-51.363 2.87-2.977 2.784-7.717-.194-10.588s-7.718-2.786-10.588.194c-16.067 16.667-24.916 38.599-24.916 61.756 0 49.073 39.923 88.995 88.995 88.995s88.995-39.923 88.995-88.995c.002-49.07-39.921-88.993-88.993-88.993zm-2.942 78.451c-1.455 2.887-1.318 6.351.379 9.119 1.756 2.865 4.947 4.563 8.293 4.469l10.588-.342-25.734 25.734 3.105-5.744c1.564-2.889 1.491-6.436-.191-9.258-1.682-2.823-4.767-4.576-8.053-4.576h-7.791z"/><path d="m413.438 374.899c4.136 0 7.488-3.352 7.488-7.488v-13.291h13.291c4.136 0 7.488-3.352 7.488-7.488s-3.352-7.488-7.488-7.488h-13.291v-13.291c0-4.136-3.352-7.488-7.488-7.488s-7.488 3.352-7.488 7.488v13.291h-13.291c-4.136 0-7.488 3.352-7.488 7.488s3.352 7.488 7.488 7.488h13.291v13.291c0 4.136 3.352 7.488 7.488 7.488z"/></g></svg>