<svg id="Layer_1" enable-background="new 0 0 472 472" height="512" viewBox="0 0 472 472" width="512" xmlns="http://www.w3.org/2000/svg"><g><g><g><path d="m162.556 296.885h-14.556v-40.716c0-13.785-11.215-25-25-25h-93.745l12.86-56.932c.519-2.295 2.524-3.898 4.877-3.898h54.014c2.353 0 4.359 1.603 4.877 3.898l6.968 30.848c.608 2.693 3.285 4.386 5.979 3.775 2.694-.608 4.384-3.285 3.775-5.979l-6.968-30.848c-1.555-6.886-7.572-11.695-14.631-11.695h-54.013c-7.06 0-13.076 4.809-14.631 11.695l-13.533 59.908c-10.81 2.756-18.829 12.572-18.829 24.228v120c0 13.785 11.215 25 25 25h93.745l-12.86 56.933c-.519 2.295-2.524 3.898-4.877 3.898h-54.015c-2.353 0-4.359-1.603-4.877-3.898l-6.239-27.619c-.608-2.693-3.285-4.386-5.979-3.775-2.694.608-4.384 3.285-3.775 5.979l6.239 27.619c1.555 6.885 7.572 11.694 14.631 11.694h54.014c7.06 0 13.076-4.809 14.631-11.695l13.533-59.908c10.81-2.755 18.829-12.572 18.829-24.228v-40.716h14.556c2.761 0 5-2.239 5-5v-28.568c0-2.761-2.239-5-5-5zm-24.556 79.284c0 8.271-6.729 15-15 15h-98c-8.271 0-15-6.729-15-15v-120c0-8.271 6.729-15 15-15h98c8.271 0 15 6.729 15 15zm19.556-50.715h-9.556v-18.568h9.556z"/><g><g><path d="m74 366.169c-27.57 0-50-22.43-50-50s22.43-50 50-50 50 22.43 50 50-22.43 50-50 50zm0-90c-22.056 0-40 17.944-40 40s17.944 40 40 40 40-17.944 40-40-17.944-40-40-40z"/></g><g><path d="m62.452 346.465c-2.601 0-5-2.386-5-5v-50.591c0-4.031 4.736-6.418 7.976-4.018l34.156 25.295c2.658 1.968 2.658 6.068 0 8.036l-34.156 25.295c-.877.651-1.924.983-2.976.983zm5.001-45.666v30.741l20.754-15.371z"/></g></g></g><g><path d="m389.438 442h-145.762c-2.761 0-5-2.239-5-5s2.239-5 5-5h145.763c2.761 0 5 2.239 5 5s-2.239 5-5.001 5z"/></g><path d="m303.237 133.539c-16.189-21.314-40.696-33.539-67.237-33.539-56.07 0-96.571 55.945-81.677 109.427l5.592 20.079c-.194.893-.303 1.817-.303 2.767v26.606c0 7.168 5.832 13 13 13h10.646v1.121c0 2.761 2.239 5 5 5h24.001c2.761 0 5-2.239 5-5v-54.848c0-2.761-2.239-5-5-5h-24.001c-2.761 0-5 2.239-5 5v1.121h-10.646c-1.733 0-3.384.347-4.897.965l-3.758-13.493c-13.139-47.178 22.524-96.745 72.043-96.745 49.526 0 85.181 49.571 72.043 96.745l-3.758 13.493c-1.513-.618-3.164-.965-4.897-.965h-10.646v-1.121c0-2.761-2.239-5-5-5h-24.002c-2.761 0-5 2.239-5 5v54.848c0 2.761 2.239 5 5 5h24.001c2.761 0 5-2.239 5-5v-1.121h10.646c7.168 0 13-5.832 13-13v-26.606c0-.95-.109-1.874-.303-2.767l5.592-20.079c7.366-26.448 2.104-54.109-14.439-75.888zm-109.979 89.613h14.001v44.848h-14.001zm-23.646 9.121c0-1.654 1.346-3 3-3h10.646v32.606h-10.646c-1.654 0-3-1.346-3-3zm109.13 35.727h-14.002v-44.848h14.001v44.848zm23.646-9.121c0 1.654-1.346 3-3 3h-10.646v-32.606h10.646c1.654 0 3 1.346 3 3z"/><path d="m463.889 319.726-32.332-29.622v-19.035c0-8.271-6.729-15-15-15h-38.057v-221.069c0-19.299-15.701-35-35-35h-215c-19.299 0-35 15.701-35 35v73.339c0 2.761 2.239 5 5 5s5-2.239 5-5v-73.339c0-13.785 11.215-25 25-25h61.986v20.731h-65.183c-2.761 0-5 2.239-5 5v110.581c0 2.761 2.239 5 5 5s5-2.239 5-5v-105.581h60.57c1.586 7.165 7.979 12.543 15.614 12.543h54.028c7.635 0 14.028-5.379 15.614-12.543h65.57v160.336c0 2.761 2.239 5 5 5s5-2.239 5-5v-165.336c0-2.761-2.239-5-5-5h-70.183v-20.731h66.984c13.785 0 25 11.215 25 25v221.068h-31.423c-2.761 0-5 2.239-5 5s2.239 5 5 5h79.48c2.757 0 5 2.243 5 5v19.152l-31.563 31.413c-4.676 4.653-7.36 11.104-7.365 17.7l-.044 55.424c-.002 2.492.36 4.925 1.055 7.243h-172.083v-75c0-2.761-2.239-5-5-5s-5 2.239-5 5v79.188l-15.356 46.069c-3.189 9.568 4.145 19.743 14.23 19.743h232.251c10.086 0 17.42-10.175 14.23-19.743l-11.023-33.07 11.592-.244c13.485-.284 24.464-11.487 24.474-24.975l.044-55.79c.006-6.998-2.95-13.724-8.11-18.452zm-197.375-282.451c0 3.309-2.691 6-6 6h-54.028c-3.309 0-6-2.691-6-6v-27.275h66.028zm159.963 292.258c4.411 0 8 3.589 8 8s-3.589 8-8 8-8-3.589-8-8 3.588-8 8-8zm10.949 125.886c1.064 3.193-1.378 6.581-4.744 6.581h-232.251c-3.365 0-5.808-3.388-4.743-6.581l14.473-43.419h179.311c4.815 5.055 11.652 7.922 18.639 7.771l17.311-.364zm24.53-61.459c-.006 8.092-6.593 14.814-14.684 14.984l-39.372.829c-8.23.182-15.322-6.763-15.315-15.008l.044-55.424c.003-3.957 1.613-7.828 4.418-10.62l24.507-24.39v15.903c-7.537 2.148-13.078 9.082-13.078 17.299 0 9.925 8.075 18 18 18s18-8.075 18-18c0-8.161-5.464-15.06-12.922-17.259v-16.611l25.579 23.435c3.097 2.837 4.871 6.873 4.867 11.072z"/></g><g><g><path d="m437.678 176.983c-2.761 0-5-2.239-5-5v-6.644c0-2.761 2.239-5 5-5s5 2.239 5 5v6.644c0 2.761-2.239 5-5 5z"/></g><g><path d="m437.678 208.983c-2.761 0-5-2.239-5-5v-5.644c0-2.761 2.239-5 5-5s5 2.239 5 5v5.644c0 2.761-2.239 5-5 5z"/></g><g><path d="m457 189.661h-5.644c-2.761 0-5-2.239-5-5s2.239-5 5-5h5.644c2.761 0 5 2.239 5 5s-2.239 5-5 5z"/></g><g><path d="m424 189.661h-5.644c-2.761 0-5-2.239-5-5s2.239-5 5-5h5.644c2.761 0 5 2.239 5 5s-2.239 5-5 5z"/></g></g><g><g><path d="m34.322 46.983c-2.761 0-5-2.239-5-5v-6.644c0-2.761 2.239-5 5-5s5 2.239 5 5v6.644c0 2.761-2.239 5-5 5z"/></g><g><path d="m34.322 78.983c-2.761 0-5-2.239-5-5v-5.644c0-2.761 2.239-5 5-5s5 2.239 5 5v5.644c0 2.761-2.239 5-5 5z"/></g><g><path d="m53.644 59.661h-5.644c-2.761 0-5-2.239-5-5s2.239-5 5-5h5.644c2.761 0 5 2.239 5 5s-2.239 5-5 5z"/></g><g><path d="m20.644 59.661h-5.644c-2.761 0-5-2.239-5-5s2.239-5 5-5h5.644c2.761 0 5 2.239 5 5s-2.239 5-5 5z"/></g></g><g><ellipse cx="98.5" cy="135.312" rx="6.458" ry="6.452"/></g><g><ellipse cx="346.697" cy="226.169" rx="6.458" ry="6.452"/></g><g><ellipse cx="206.557" cy="301.753" rx="6.458" ry="6.452"/></g></g></svg>