<svg id="Capa_1" enable-background="new 0 0 512 512" height="512" viewBox="0 0 512 512" width="512" xmlns="http://www.w3.org/2000/svg"><g><path d="m491.5 68.5h-141.964c-4.142 0-7.5 3.357-7.5 7.5s3.358 7.5 7.5 7.5h141.964c3.033 0 5.5 2.467 5.5 5.5v334c0 3.033-2.467 5.5-5.5 5.5h-471c-3.033 0-5.5-2.467-5.5-5.5v-334c0-3.033 2.467-5.5 5.5-5.5h294.036c4.142 0 7.5-3.357 7.5-7.5s-3.358-7.5-7.5-7.5h-294.036c-11.304 0-20.5 9.196-20.5 20.5v334c0 11.304 9.196 20.5 20.5 20.5h471c11.304 0 20.5-9.196 20.5-20.5v-334c0-11.304-9.196-20.5-20.5-20.5z"/><path d="m294.411 160.992v.263h-17.541c-9.425 0-17.093 7.668-17.093 17.093v44.79c0 9.425 7.668 17.093 17.093 17.093h17.541v.263c0 9.426 7.668 17.094 17.093 17.094h15.448c9.425 0 17.093-7.668 17.093-17.094v-17.024h41.783v17.023c0 9.426 7.668 17.094 17.093 17.094h15.448c9.425 0 17.093-7.668 17.093-17.094v-.263h17.541c9.425 0 17.093-7.668 17.093-17.093v-44.79c0-9.425-7.668-17.093-17.093-17.093h-17.541v-.263c0-9.425-7.668-17.093-17.093-17.093h-15.448c-9.425 0-17.093 7.668-17.093 17.093v17.027h-41.783v-17.027c0-9.425-7.668-17.093-17.093-17.093h-15.448c-9.425.001-17.093 7.669-17.093 17.094zm-17.541 64.238c-1.154 0-2.093-.938-2.093-2.093v-44.79c0-1.154.939-2.093 2.093-2.093h17.541v48.976zm176.133-48.975c1.154 0 2.093.938 2.093 2.093v44.79c0 1.154-.939 2.093-2.093 2.093h-17.541v-48.976zm-50.082-17.356h15.448c1.154 0 2.093.938 2.093 2.093v79.501c0 1.154-.939 2.094-2.093 2.094h-15.448c-1.154 0-2.093-.939-2.093-2.094 0-27.393 0-51.904 0-79.501 0-1.154.939-2.093 2.093-2.093zm-17.093 34.121v15.45h-41.783v-15.45zm-56.783-32.028v79.501c0 1.154-.939 2.094-2.093 2.094h-15.448c-1.154 0-2.093-.939-2.093-2.094v-79.501c0-1.154.939-2.093 2.093-2.093h15.448c1.154 0 2.093.939 2.093 2.093z"/><path d="m440.605 303.304h-151.337c-4.142 0-7.5 3.357-7.5 7.5s3.358 7.5 7.5 7.5h151.337c4.142 0 7.5-3.357 7.5-7.5s-3.358-7.5-7.5-7.5z"/><path d="m440.605 353.101h-151.337c-4.142 0-7.5 3.357-7.5 7.5s3.358 7.5 7.5 7.5h151.337c4.142 0 7.5-3.357 7.5-7.5s-3.358-7.5-7.5-7.5z"/><path d="m48.67 352.18c-4.142 0-7.5 3.357-7.5 7.5v12.771c0 7.924 6.442 14.37 14.36 14.37h151.33c7.918 0 14.36-6.446 14.36-14.37v-100.031c0-19.432-15.809-35.24-35.24-35.24-4.603 0-21.621 0-26.23 0v-14.6l6.732-5.894c9.413-8.241 14.812-20.144 14.812-32.655v-20.123c0-24.606-20.019-44.626-44.625-44.626h-6.817c-24.607 0-44.626 20.02-44.626 44.626v20.123c0 12.512 5.399 24.414 14.812 32.655l6.732 5.894v14.6c-3.204 0-26.933 0-30.36 0-19.432 0-35.24 15.809-35.24 35.24v52.26c0 4.143 3.358 7.5 7.5 7.5s7.5-3.357 7.5-7.5v-52.26c0-6.535 3.127-12.34 7.949-16.043-.307 2.475-.144 2.266-.174 21.367-.019 12.444 3.577 24.517 10.343 34.912 4.454 6.841 6.808 14.573 6.808 22.361v36.803h-24.926v-12.14c0-4.143-3.358-7.5-7.5-7.5zm157.55 19.64h-20.796v-36.803c0-7.788 2.354-15.521 6.808-22.362 6.767-10.396 10.343-22.468 10.343-34.911v-16.878c2.291 3.279 3.645 7.259 3.645 11.554zm-49.412-119.836c-4.123 8.237-11.724 15.046-23.548 15.046s-19.425-6.809-23.547-15.046c6.832-1.135 12.058-7.091 12.058-14.244v-7.302c1.976.403 3.999.618 6.043.618h10.894c2.044 0 4.067-.214 6.043-.618v7.302c-.001 7.154 5.224 13.11 12.057 14.244zm-56.582-88.077c0-16.336 13.29-29.626 29.626-29.626h6.817c16.335 0 29.625 13.29 29.625 29.626v20.123c0 8.188-3.533 15.977-9.693 21.37l-7.863 6.885c-2.777 2.432-6.34 3.771-10.031 3.771h-10.894c-3.691 0-7.253-1.339-10.031-3.771l-7.863-6.885c-6.16-5.394-9.693-13.183-9.693-21.37zm-13.367 140.566c-5.178-7.954-7.915-17.197-7.915-26.729v-18.657c0-3.785 3.059-6.865 6.834-6.907h7.795c6.071 18.327 21.114 29.851 39.686 29.851s33.615-11.524 39.687-29.851h7.795c3.775.042 6.834 3.123 6.834 6.907v18.657c0 9.531-2.737 18.773-7.914 26.729-6.043 9.281-9.237 19.844-9.237 30.545v36.803h-74.328v-36.803c0-10.701-3.194-21.263-9.237-30.545z"/></g></svg>