<svg xmlns="http://www.w3.org/2000/svg" version="1.1" xmlns:xlink="http://www.w3.org/1999/xlink" width="512" height="512" x="0" y="0" viewBox="0 0 420.8 420.8" style="enable-background:new 0 0 512 512" xml:space="preserve" class=""><g><path d="M413.6 204H378c14.8-33.6 13.2-60.8 7.6-79.2-9.6-32.8-42-68.4-90-68.4-12.8 0-25.6 2.4-38.8 7.2C234 72 218.8 81.2 212 86c-6.8-4.8-21.6-14-44.8-22.4-13.2-4.8-26.4-7.2-38.8-7.2-48 0-80.4 35.6-90 68.4-5.6 19.6-7.6 49.2 11.2 86.4H6.4c-3.6 0-6.4 2.8-6.4 6.4 0 3.6 2.8 6.4 6.4 6.4h50.8c2 3.6 4.4 7.2 7.2 10.8 41.6 60 132 125.2 148.4 129.2v.4s.4 0 .8-.4h1.2v-.4c14-6.8 100.8-62.8 146.4-129.2 4.4-6 8-12 11.2-18h42c3.6 0 6.4-2.8 6.4-6.4 0-3.6-3.6-6-7.2-6zm-64 23.6c-42.4 62-120.4 112-137.2 122.8-17.2-10.8-94.8-61.2-137.6-122.8l-2.4-3.6h58.8c2.4 0 4.8-1.2 6-3.6l26.8-52.8 42 107.6c.8 2.4 3.6 4 6 4h.4c2.8 0 5.2-2 6-4.8l36.8-126 19.6 63.6c.8 2.4 2.8 4 5.2 4.4 2.4.4 4.8-.8 6.4-2.8l15.6-22.8 13.2 22.4c1.2 2 3.2 3.2 5.6 3.2h36c-2.4 4-4.8 7.6-7.2 11.2zM364 204h-39.2l-16.4-28c-1.2-2-3.2-3.2-5.6-3.2-2.4 0-4.4.8-5.6 2.8l-13.6 20-22-71.6c-.8-2.8-3.6-4.4-6.4-4.8-2.8 0-5.6 2-6.4 4.8l-37.2 128.4-40.4-103.2c-.8-2.4-3.2-4-5.6-4-2.8 0-4.8 1.2-6 3.6l-31.6 62H64.4c-16-29.2-20.4-57.2-13.2-82.4 8.4-28.4 36-58.8 77.6-58.8 11.2 0 22.8 2.4 34.4 6.4 29.2 10.8 44.8 23.2 45.2 23.2 2.4 2 5.6 2 8 0 0 0 15.6-12.4 45.2-23.2 11.6-4.4 23.2-6.4 34.4-6.4 41.2 0 69.2 30.4 77.6 58.8 6.8 23.2 3.2 48.8-9.6 75.6z" fill="#f1f1f1" opacity="1" data-original="#000000"></path></g></svg>