<?xml version="1.0" encoding="UTF-8"?>
<svg xmlns="http://www.w3.org/2000/svg" xmlns:xlink="http://www.w3.org/1999/xlink" version="1.1" id="Capa_1" x="0px" y="0px" viewBox="0 0 511.996 511.996" style="enable-background:new 0 0 511.996 511.996;" xml:space="preserve" width="512" height="512">
<g>
	<path style="fill:none;stroke:#000000;stroke-width:15;stroke-linecap:round;stroke-linejoin:round;stroke-miterlimit:10;" d="&#10;&#9;&#9;M276.968,368.648c0.11,0,0.21,0,0.32,0c0.3,0,0.59-0.01,0.88-0.02c38.6-1.05,52.37-54.62,14.08-68.13&#10;&#9;&#9;c-5.08-1.79-9.77-3.52-14.08-5.25c-10.33-4.15-18.47-8.25-24.48-12.94c-14.81-11.61-9.39-41.35,12.4-47.89&#10;&#9;&#9;c4.32-1.29,8.36-1.89,12.08-1.99c16.58-0.46,26.84,8.82,27.04,9.01"/>
	
		<polyline style="fill:none;stroke:#000000;stroke-width:15;stroke-linecap:round;stroke-linejoin:round;stroke-miterlimit:10;" points="&#10;&#9;&#9;278.168,213.338 278.168,232.428 278.168,295.248 278.168,368.628 &#9;"/>
	<path style="fill:none;stroke:#000000;stroke-width:15;stroke-linecap:round;stroke-linejoin:round;stroke-miterlimit:10;" d="&#10;&#9;&#9;M196.028,192.618c22.79-17.29,51.27-27.56,82.14-27.56c75.02,0,135.85,60.65,135.85,135.47c0,31.45-10.75,60.41-28.78,83.4"/>
	<path style="fill:none;stroke:#000000;stroke-width:15;stroke-linecap:round;stroke-linejoin:round;stroke-miterlimit:10;" d="&#10;&#9;&#9;M143.668,319.658c-0.89-6.25-1.35-12.64-1.35-19.13c0-32.06,11.18-61.55,29.88-84.76"/>
	<path style="fill:none;stroke:#000000;stroke-width:15;stroke-linecap:round;stroke-linejoin:round;stroke-miterlimit:10;" d="&#10;&#9;&#9;M287.62,422.019c-0.88,2.038-1.929,3.905-3.149,5.547c-9.505,12.593-26.245,12.282-42.957,1.443l-62.08-40.327"/>
	<path style="fill:none;stroke:#000000;stroke-width:15;stroke-linecap:round;stroke-linejoin:round;stroke-miterlimit:10;" d="&#10;&#9;&#9;M9.366,479.892h78.565c7.036,0,12.796-5.717,12.796-12.735V320.565c0-7.018-5.76-12.735-12.796-12.735H9.366"/>
	<path style="fill:none;stroke:#000000;stroke-width:15;stroke-linecap:round;stroke-linejoin:round;stroke-miterlimit:10;" d="&#10;&#9;&#9;M359.208,456.038l-75.79,35.26c-39.61,18.42-58.79,18.87-101.54-7.02c-41.88-25.38-47.39-28.92-81.15-28.92v-119.96l32.17-12.4&#10;&#9;&#9;c3.56-1.37,7.16-2.48,10.77-3.34c34.59-8.35,71.09,5.25,98.53,23.24l22.69,14.88c23.44,15.34,30.22,46.5,22.73,64.24l97.62-38.09&#10;&#9;&#9;l26.23-10.24c41.74-16.28,57.48,31.29,19.66,48.9l-41.79,19.44"/>
	
		<line style="fill:none;stroke:#000000;stroke-width:15;stroke-linecap:round;stroke-linejoin:round;stroke-miterlimit:10;" x1="278.172" y1="165.058" x2="278.172" y2="114.345"/>
	<path style="fill:none;stroke:#000000;stroke-width:15;stroke-linecap:round;stroke-linejoin:round;stroke-miterlimit:10;" d="&#10;&#9;&#9;M278.172,114.345c19.095-25.951,36.261-47.657,96.383-57.392"/>
	<path style="fill:none;stroke:#000000;stroke-width:15;stroke-linecap:round;stroke-linejoin:round;stroke-miterlimit:10;" d="&#10;&#9;&#9;M502.63,82.423C462.511-32.219,282.484-0.976,297.352,80.386c7.008,38.686,40.63,69.079,107.278,20.234&#10;&#9;&#9;C428.208,83.329,454.51,61.51,502.63,82.423L502.63,82.423z"/>
	<path style="fill:none;stroke:#000000;stroke-width:15;stroke-linecap:round;stroke-linejoin:round;stroke-miterlimit:10;" d="&#10;&#9;&#9;M278.172,114.345c-19.095-25.951-36.261-47.657-96.383-57.392"/>
	<path style="fill:none;stroke:#000000;stroke-width:15;stroke-linecap:round;stroke-linejoin:round;stroke-miterlimit:10;" d="&#10;&#9;&#9;M53.713,82.423C93.804-32.219,273.831-0.976,258.991,80.386c-7.037,38.686-40.63,69.079-107.278,20.234&#10;&#9;&#9;C128.135,83.329,101.805,61.51,53.713,82.423L53.713,82.423z"/>
</g>















</svg>
