<svg clip-rule="evenodd" fill-rule="evenodd" stroke-linejoin="round" stroke-miterlimit="2" viewBox="0 0 48 48" xmlns="http://www.w3.org/2000/svg"><g transform="translate(-72 -792)"><g transform="matrix(1.09 0 0 1.09 -7.722 -73.742)"><g id="COLOR-LINE"><path d="m75.03 800.902c-.256-1.024.096-2.104.906-2.78s1.936-.829 2.897-.394l34.851 15.765c.984.446 1.617 1.426 1.617 2.507s-.633 2.061-1.617 2.507l-34.851 15.765c-.961.435-2.087.282-2.897-.394s-1.162-1.756-.906-2.78l2.811-11.242c.248-.994 1.029-1.768 2.025-2.008l7.674-1.848-7.674-1.848c-.996-.24-1.777-1.014-2.025-2.008zm1.78-.445 2.81 11.242c.083.332.343.59.675.67l11.376 2.739c.412.1.703.468.703.892s-.291.792-.703.892l-11.376 2.739c-.332.08-.592.338-.675.67l-2.81 11.242c-.086.341.032.701.302.927.27.225.645.276.965.131l34.851-15.765c.328-.149.539-.476.539-.836s-.211-.687-.539-.836l-34.851-15.765c-.32-.145-.695-.094-.965.131-.27.226-.388.586-.302.927z" fill="#3b3b3b"/></g></g></g></svg>