<svg xmlns="http://www.w3.org/2000/svg" version="1.1" xmlns:xlink="http://www.w3.org/1999/xlink" width="512" height="512" x="0" y="0" viewBox="0 0 512 512" style="enable-background:new 0 0 512 512" xml:space="preserve" class=""><g><path fill="#f1f1f1" d="M511.57 356.42v-46.63c0-13.15-10.91-25.4-30.78-34.65v-16.51c0-10.12-6.31-24.52-36.36-35.65-20.67-7.65-48-11.87-76.87-11.87s-56.21 4.22-76.88 11.87c-30.05 11.13-36.36 25.53-36.36 35.65V303.54a15.21 15.21 0 0 0 .51 5.68c1.86 8.77 9.21 19.43 30.24 28.4v65.26a10 10 0 0 0-.16 1.74c0 .76 0 1.54.11 2.34v41.22a15.24 15.24 0 0 0 .51 5.68c2 9.51 10.47 21.23 35.84 30.62 20.67 7.66 48 11.87 76.87 11.87s56.2-4.21 76.88-11.87c25.36-9.39 33.81-21.11 35.83-30.62a15.24 15.24 0 0 0 .51-5.68V363.75c.1-.55.19-1.08.25-1.61 0-.19.05-.39.07-.59.07-.8.11-1.58.11-2.34a9.15 9.15 0 0 0-.32-2.79zM493.81 403a10.51 10.51 0 0 0-.18 1.53v.41c-.06.31-.1.63-.13 1-1.1 4.61-8 11.54-24.61 17.71-18.75 6.94-43.86 10.76-70.71 10.76s-52-3.82-70.71-10.76c-16.63-6.16-23.5-13.08-24.61-17.69v-20.39a94.7 94.7 0 0 0 19 9.29c20.67 7.65 48 11.87 76.87 11.87s56.21-4.22 76.88-11.87a96.94 96.94 0 0 0 18.17-8.73zM338.6 350.25a8.69 8.69 0 0 0 2.44 1 258.21 258.21 0 0 0 57.29 6.09c28.9 0 56.2-4.21 76.88-11.87a95.67 95.67 0 0 0 18.6-9v25c-1.71 4.58-8.72 11-24.34 16.82-18.75 6.86-43.86 10.71-70.71 10.71s-52-3.82-70.71-10.76c-16.65-6.17-23.52-13.1-24.61-17.71 0-.32-.07-.64-.13-.95v-.41a9.92 9.92 0 0 0-.44-2.64v-12.78a219.88 219.88 0 0 0 35.73 6.5zm155.21-40.46c0 4.53-6.49 12.22-24.77 19-1.91.71-3.89 1.37-5.93 2 11.21-7.24 15.75-14.94 17.16-21.57a15.43 15.43 0 0 0 .51-5.68v-8.31c9.46 5.66 13.03 11.12 13.03 14.56zm-197-70.16c18.75-6.94 43.86-10.76 70.71-10.76s52 3.82 70.71 10.76c18.28 6.77 24.77 14.47 24.77 19s-6.49 12.23-24.77 19c-18.75 6.94-43.86 10.76-70.71 10.76a240.84 240.84 0 0 1-53.29-5.63c-11.33-2.63-21.23-6.12-28.61-10.11-8.51-4.59-13.58-9.83-13.58-14 .04-4.55 6.52-12.25 24.81-19.02zm-24.73 64.57v-18.97c1.58 1 3.28 2 5.14 3 8.89 4.8 20 8.76 33 11.78a258.22 258.22 0 0 0 57.3 6.1c28.9 0 56.2-4.22 76.87-11.87a95.48 95.48 0 0 0 18.61-9v18.97c0 4.53-6.49 12.23-24.77 19-18.71 6.93-43.82 10.79-70.67 10.79s-52-3.82-70.71-10.76c-18.29-6.81-24.77-14.51-24.77-19.04zM469 467.83c-18.75 6.94-43.86 10.77-70.71 10.77s-52-3.83-70.71-10.77c-18.28-6.77-24.77-14.46-24.77-19v-17.46a96.09 96.09 0 0 0 18.44 8.9c20.67 7.65 48 11.87 76.88 11.87s56.2-4.22 76.87-11.87a94.82 94.82 0 0 0 18.77-9.11v17.68c.04 4.53-6.45 12.22-24.77 18.99z" opacity="1" data-original="#150f91" class=""></path><path fill="#f1f1f1" d="M217.61 262.31a29.22 29.22 0 0 0 8.87-57.06v-87.72a8.86 8.86 0 0 0-8.87-8.88 8.87 8.87 0 0 0-8.88 8.87v87.74a29.32 29.32 0 0 0-19.22 19.89l-58.14-.58a8.88 8.88 0 1 0-.17 17.76l58.9.58a29.26 29.26 0 0 0 27.51 19.4zm0-40.68a11.47 11.47 0 1 1-11.47 11.46 11.47 11.47 0 0 1 11.47-11.46z" opacity="1" data-original="#ea7513" class=""></path><g fill="#150f91"><path d="M244.76 431.4c-6 .82-12.17 1.36-18.31 1.62v-46.93a8.88 8.88 0 0 0-17.75 0V433C105.53 428.43 22.45 345.3 18 242.1h46.88a8.88 8.88 0 1 0 0-17.75H18C22.54 121.18 105.68 38.1 208.87 33.61v46.92a8.88 8.88 0 0 0 17.76 0V33.61C312.23 37.47 387 96.29 410.19 179.3a8.88 8.88 0 1 0 17.1-4.79 219.08 219.08 0 0 0-77-113.79A217.67 217.67 0 0 0 0 233.31 217.67 217.67 0 0 0 217.66 451a221.07 221.07 0 0 0 29.48-2 8.88 8.88 0 1 0-2.38-17.6z" fill="#f1f1f1" opacity="1" data-original="#150f91" class=""></path><path d="M142.93 112.73a8.88 8.88 0 0 0 7.68-13.32l-8.15-14.11a8.88 8.88 0 1 0-15.37 8.88l8.14 14.11a8.87 8.87 0 0 0 7.7 4.44zM92.64 150.88l-14.11-8.15a8.88 8.88 0 0 0-8.88 15.38l14.11 8.14a8.88 8.88 0 1 0 8.88-15.37zM83.76 300.37l-14.11 8.15a8.88 8.88 0 0 0 8.88 15.37l14.11-8.14a8.88 8.88 0 0 0-8.88-15.38zM356.8 142.73l-14.11 8.15a8.88 8.88 0 1 0 8.88 15.37l14.1-8.14a8.88 8.88 0 0 0-8.87-15.38zM135.23 358.34l-8.15 14.1a8.88 8.88 0 1 0 15.38 8.88l8.15-14.1a8.88 8.88 0 1 0-15.38-8.88zM292.87 85.3l-8.15 14.11a8.88 8.88 0 1 0 15.38 8.88l8.14-14.11a8.88 8.88 0 1 0-15.37-8.88z" fill="#f1f1f1" opacity="1" data-original="#150f91" class=""></path></g></g></svg>